<?xml version="1.0" encoding="UTF-8" ?>
<svg version="1.1" width="24" height="24" xmlns="http://www.w3.org/2000/svg" shape-rendering="crispEdges">
<rect x="2" y="1" width="1" height="1" fill="#FFFFFF" opacity="0.207843" />
<rect x="3" y="1" width="1" height="1" fill="#FFFFFF" opacity="0.345098" />
<rect x="4" y="1" width="1" height="1" fill="#FFFFFF" opacity="0.329412" />
<rect x="5" y="1" width="1" height="1" fill="#FFFFFF" opacity="0.329412" />
<rect x="6" y="1" width="1" height="1" fill="#FFFFFF" opacity="0.325490" />
<rect x="7" y="1" width="1" height="1" fill="#FFFFFF" opacity="0.325490" />
<rect x="8" y="1" width="1" height="1" fill="#FFFFFF" opacity="0.329412" />
<rect x="9" y="1" width="1" height="1" fill="#FFFFFF" opacity="0.329412" />
<rect x="10" y="1" width="1" height="1" fill="#FFFFFF" opacity="0.329412" />
<rect x="11" y="1" width="1" height="1" fill="#FFFFFF" opacity="0.329412" />
<rect x="12" y="1" width="1" height="1" fill="#FFFFFF" opacity="0.325490" />
<rect x="13" y="1" width="1" height="1" fill="#FFFFFF" opacity="0.325490" />
<rect x="14" y="1" width="1" height="1" fill="#FFFFFF" opacity="0.329412" />
<rect x="15" y="1" width="1" height="1" fill="#FFFFFF" opacity="0.329412" />
<rect x="16" y="1" width="1" height="1" fill="#FFFFFF" opacity="0.329412" />
<rect x="17" y="1" width="1" height="1" fill="#FFFFFF" opacity="0.329412" />
<rect x="18" y="1" width="1" height="1" fill="#FFFFFF" opacity="0.325490" />
<rect x="19" y="1" width="1" height="1" fill="#FFFFFF" opacity="0.329412" />
<rect x="20" y="1" width="1" height="1" fill="#FFFFFF" opacity="0.345098" />
<rect x="21" y="1" width="1" height="1" fill="#FFFFFF" opacity="0.211765" />
<rect x="1" y="2" width="1" height="1" fill="#FFFFFF" opacity="0.168627" />
<rect x="2" y="2" width="1" height="1" fill="#FFFFFF" opacity="0.682353" />
<rect x="3" y="2" width="1" height="1" fill="#FFFFFF" opacity="0.854902" />
<rect x="4" y="2" width="1" height="1" fill="#FFFFFF" opacity="0.835294" />
<rect x="5" y="2" width="1" height="1" fill="#FFFFFF" opacity="0.823529" />
<rect x="6" y="2" width="1" height="1" fill="#FFFFFF" opacity="0.776471" />
<rect x="7" y="2" width="1" height="1" fill="#FFFFFF" opacity="0.803922" />
<rect x="8" y="2" width="1" height="1" fill="#FFFFFF" opacity="0.835294" />
<rect x="9" y="2" width="1" height="1" fill="#FFFFFF" opacity="0.831373" />
<rect x="10" y="2" width="1" height="1" fill="#FFFFFF" opacity="0.835294" />
<rect x="11" y="2" width="1" height="1" fill="#FFFFFF" opacity="0.823529" />
<rect x="12" y="2" width="1" height="1" fill="#FFFFFF" opacity="0.776471" />
<rect x="13" y="2" width="1" height="1" fill="#FFFFFF" opacity="0.803922" />
<rect x="14" y="2" width="1" height="1" fill="#FFFFFF" opacity="0.835294" />
<rect x="15" y="2" width="1" height="1" fill="#FFFFFF" opacity="0.831373" />
<rect x="16" y="2" width="1" height="1" fill="#FFFFFF" opacity="0.835294" />
<rect x="17" y="2" width="1" height="1" fill="#FFFFFF" opacity="0.815686" />
<rect x="18" y="2" width="1" height="1" fill="#FFFFFF" opacity="0.780392" />
<rect x="19" y="2" width="1" height="1" fill="#FFFFFF" opacity="0.811765" />
<rect x="20" y="2" width="1" height="1" fill="#FFFFFF" opacity="0.858824" />
<rect x="21" y="2" width="1" height="1" fill="#FFFFFF" opacity="0.686275" />
<rect x="22" y="2" width="1" height="1" fill="#FFFFFF" opacity="0.168627" />
<rect x="0" y="3" width="1" height="1" fill="#FFFFFF" opacity="0.141176" />
<rect x="1" y="3" width="1" height="1" fill="#FFFFFF" opacity="0.807843" />
<rect x="2" y="3" width="1" height="1" fill="#FFFFFF" opacity="0.937255" />
<rect x="3" y="3" width="1" height="1" fill="#FFFFFF" opacity="0.803922" />
<rect x="4" y="3" width="1" height="1" fill="#FFFFFF" opacity="0.807843" />
<rect x="5" y="3" width="1" height="1" fill="#FFFFFF" opacity="0.823529" />
<rect x="6" y="3" width="1" height="1" fill="#FFFFFF" />
<rect x="7" y="3" width="1" height="1" fill="#FFFFFF" opacity="0.949020" />
<rect x="8" y="3" width="1" height="1" fill="#FFFFFF" opacity="0.800000" />
<rect x="9" y="3" width="1" height="1" fill="#FFFFFF" opacity="0.811765" />
<rect x="10" y="3" width="1" height="1" fill="#FFFFFF" opacity="0.807843" />
<rect x="11" y="3" width="1" height="1" fill="#FFFFFF" opacity="0.819608" />
<rect x="12" y="3" width="1" height="1" fill="#FFFFFF" />
<rect x="13" y="3" width="1" height="1" fill="#FFFFFF" opacity="0.952941" />
<rect x="14" y="3" width="1" height="1" fill="#FFFFFF" opacity="0.800000" />
<rect x="15" y="3" width="1" height="1" fill="#FFFFFF" opacity="0.811765" />
<rect x="16" y="3" width="1" height="1" fill="#FFFFFF" opacity="0.800000" />
<rect x="17" y="3" width="1" height="1" fill="#FFFFFF" opacity="0.854902" />
<rect x="18" y="3" width="1" height="1" fill="#FFFFFF" />
<rect x="19" y="3" width="1" height="1" fill="#FFFFFF" opacity="0.909804" />
<rect x="20" y="3" width="1" height="1" fill="#FFFFFF" opacity="0.780392" />
<rect x="21" y="3" width="1" height="1" fill="#FFFFFF" opacity="0.937255" />
<rect x="22" y="3" width="1" height="1" fill="#FFFFFF" opacity="0.807843" />
<rect x="23" y="3" width="1" height="1" fill="#FFFFFF" opacity="0.141176" />
<rect x="0" y="4" width="1" height="1" fill="#FFFFFF" opacity="0.482353" />
<rect x="1" y="4" width="1" height="1" fill="#FFFFFF" />
<rect x="2" y="4" width="1" height="1" fill="#FFFFFF" opacity="0.368627" />
<rect x="4" y="4" width="1" height="1" fill="#FFFFFF" opacity="0.003922" />
<rect x="5" y="4" width="1" height="1" fill="#FFFFFF" opacity="0.239216" />
<rect x="6" y="4" width="1" height="1" fill="#FFFFFF" opacity="0.996078" />
<rect x="7" y="4" width="1" height="1" fill="#FFFFFF" opacity="0.450980" />
<rect x="9" y="4" width="1" height="1" fill="#FFFFFF" opacity="0.011765" />
<rect x="10" y="4" width="1" height="1" fill="#FFFFFF" opacity="0.007843" />
<rect x="11" y="4" width="1" height="1" fill="#FFFFFF" opacity="0.227451" />
<rect x="12" y="4" width="1" height="1" fill="#FFFFFF" opacity="0.996078" />
<rect x="13" y="4" width="1" height="1" fill="#FFFFFF" opacity="0.462745" />
<rect x="15" y="4" width="1" height="1" fill="#FFFFFF" opacity="0.011765" />
<rect x="17" y="4" width="1" height="1" fill="#FFFFFF" opacity="0.419608" />
<rect x="18" y="4" width="1" height="1" fill="#FFFFFF" opacity="0.964706" />
<rect x="19" y="4" width="1" height="1" fill="#FFFFFF" opacity="0.290196" />
<rect x="21" y="4" width="1" height="1" fill="#FFFFFF" opacity="0.364706" />
<rect x="22" y="4" width="1" height="1" fill="#FFFFFF" />
<rect x="23" y="4" width="1" height="1" fill="#FFFFFF" opacity="0.482353" />
<rect x="0" y="5" width="1" height="1" fill="#FFFFFF" opacity="0.525490" />
<rect x="1" y="5" width="1" height="1" fill="#FFFFFF" />
<rect x="2" y="5" width="1" height="1" fill="#FFFFFF" opacity="0.250980" />
<rect x="5" y="5" width="1" height="1" fill="#FFFFFF" opacity="0.560784" />
<rect x="6" y="5" width="1" height="1" fill="#FFFFFF" opacity="0.937255" />
<rect x="7" y="5" width="1" height="1" fill="#FFFFFF" opacity="0.168627" />
<rect x="11" y="5" width="1" height="1" fill="#FFFFFF" opacity="0.545098" />
<rect x="12" y="5" width="1" height="1" fill="#FFFFFF" opacity="0.941176" />
<rect x="13" y="5" width="1" height="1" fill="#FFFFFF" opacity="0.176471" />
<rect x="17" y="5" width="1" height="1" fill="#FFFFFF" opacity="0.752941" />
<rect x="18" y="5" width="1" height="1" fill="#FFFFFF" opacity="0.850980" />
<rect x="19" y="5" width="1" height="1" fill="#FFFFFF" opacity="0.043137" />
<rect x="21" y="5" width="1" height="1" fill="#FFFFFF" opacity="0.250980" />
<rect x="22" y="5" width="1" height="1" fill="#FFFFFF" />
<rect x="23" y="5" width="1" height="1" fill="#FFFFFF" opacity="0.525490" />
<rect x="0" y="6" width="1" height="1" fill="#FFFFFF" opacity="0.513725" />
<rect x="1" y="6" width="1" height="1" fill="#FFFFFF" />
<rect x="2" y="6" width="1" height="1" fill="#FFFFFF" opacity="0.274510" />
<rect x="4" y="6" width="1" height="1" fill="#FFFFFF" opacity="0.047059" />
<rect x="5" y="6" width="1" height="1" fill="#FFFFFF" opacity="0.854902" />
<rect x="6" y="6" width="1" height="1" fill="#FFFFFF" opacity="0.752941" />
<rect x="10" y="6" width="1" height="1" fill="#FFFFFF" opacity="0.039216" />
<rect x="11" y="6" width="1" height="1" fill="#FFFFFF" opacity="0.847059" />
<rect x="12" y="6" width="1" height="1" fill="#FFFFFF" opacity="0.768627" />
<rect x="16" y="6" width="1" height="1" fill="#FFFFFF" opacity="0.172549" />
<rect x="17" y="6" width="1" height="1" fill="#FFFFFF" opacity="0.937255" />
<rect x="18" y="6" width="1" height="1" fill="#FFFFFF" opacity="0.556863" />
<rect x="21" y="6" width="1" height="1" fill="#FFFFFF" opacity="0.274510" />
<rect x="22" y="6" width="1" height="1" fill="#FFFFFF" />
<rect x="23" y="6" width="1" height="1" fill="#FFFFFF" opacity="0.513725" />
<rect x="0" y="7" width="1" height="1" fill="#FFFFFF" opacity="0.513725" />
<rect x="1" y="7" width="1" height="1" fill="#FEFEFE" />
<rect x="2" y="7" width="1" height="1" fill="#FFFFFF" opacity="0.250980" />
<rect x="4" y="7" width="1" height="1" fill="#FFFFFF" opacity="0.274510" />
<rect x="5" y="7" width="1" height="1" fill="#FFFFFF" opacity="0.968627" />
<rect x="6" y="7" width="1" height="1" fill="#FFFFFF" opacity="0.388235" />
<rect x="10" y="7" width="1" height="1" fill="#FFFFFF" opacity="0.262745" />
<rect x="11" y="7" width="1" height="1" fill="#FFFFFF" opacity="0.964706" />
<rect x="12" y="7" width="1" height="1" fill="#FFFFFF" opacity="0.403922" />
<rect x="16" y="7" width="1" height="1" fill="#FFFFFF" opacity="0.447059" />
<rect x="17" y="7" width="1" height="1" fill="#FFFFFF" opacity="0.996078" />
<rect x="18" y="7" width="1" height="1" fill="#FFFFFF" opacity="0.200000" />
<rect x="21" y="7" width="1" height="1" fill="#FFFFFF" opacity="0.254902" />
<rect x="22" y="7" width="1" height="1" fill="#FEFEFE" />
<rect x="23" y="7" width="1" height="1" fill="#FFFFFF" opacity="0.513725" />
<rect x="0" y="8" width="1" height="1" fill="#FFFFFF" opacity="0.505882" />
<rect x="1" y="8" width="1" height="1" fill="#FDFDFD" />
<rect x="2" y="8" width="1" height="1" fill="#FFFFFF" opacity="0.815686" />
<rect x="3" y="8" width="1" height="1" fill="#FFFFFF" opacity="0.713725" />
<rect x="4" y="8" width="1" height="1" fill="#FFFFFF" opacity="0.882353" />
<rect x="5" y="8" width="1" height="1" fill="#FFFFFF" />
<rect x="6" y="8" width="1" height="1" fill="#FFFFFF" opacity="0.792157" />
<rect x="7" y="8" width="1" height="1" fill="#FFFFFF" opacity="0.721569" />
<rect x="8" y="8" width="1" height="1" fill="#FFFFFF" opacity="0.741176" />
<rect x="9" y="8" width="1" height="1" fill="#FFFFFF" opacity="0.713725" />
<rect x="10" y="8" width="1" height="1" fill="#FFFFFF" opacity="0.874510" />
<rect x="11" y="8" width="1" height="1" fill="#FFFFFF" />
<rect x="12" y="8" width="1" height="1" fill="#FFFFFF" opacity="0.796078" />
<rect x="13" y="8" width="1" height="1" fill="#FFFFFF" opacity="0.721569" />
<rect x="14" y="8" width="1" height="1" fill="#FFFFFF" opacity="0.733333" />
<rect x="15" y="8" width="1" height="1" fill="#FFFFFF" opacity="0.721569" />
<rect x="16" y="8" width="1" height="1" fill="#FFFFFF" opacity="0.937255" />
<rect x="17" y="8" width="1" height="1" fill="#FFFFFF" />
<rect x="18" y="8" width="1" height="1" fill="#FFFFFF" opacity="0.749020" />
<rect x="19" y="8" width="1" height="1" fill="#FFFFFF" opacity="0.729412" />
<rect x="20" y="8" width="1" height="1" fill="#FFFFFF" opacity="0.721569" />
<rect x="21" y="8" width="1" height="1" fill="#FFFFFF" opacity="0.815686" />
<rect x="22" y="8" width="1" height="1" fill="#FDFDFD" />
<rect x="23" y="8" width="1" height="1" fill="#FFFFFF" opacity="0.505882" />
<rect x="0" y="9" width="1" height="1" fill="#FFFFFF" opacity="0.505882" />
<rect x="1" y="9" width="1" height="1" fill="#FEFEFE" />
<rect x="2" y="9" width="1" height="1" fill="#FFFFFF" opacity="0.878431" />
<rect x="3" y="9" width="1" height="1" fill="#FFFFFF" opacity="0.815686" />
<rect x="4" y="9" width="1" height="1" fill="#FFFFFF" opacity="0.811765" />
<rect x="5" y="9" width="1" height="1" fill="#FFFFFF" opacity="0.772549" />
<rect x="6" y="9" width="1" height="1" fill="#FFFFFF" opacity="0.811765" />
<rect x="7" y="9" width="1" height="1" fill="#FFFFFF" opacity="0.831373" />
<rect x="8" y="9" width="1" height="1" fill="#FFFFFF" opacity="0.831373" />
<rect x="9" y="9" width="1" height="1" fill="#FFFFFF" opacity="0.831373" />
<rect x="10" y="9" width="1" height="1" fill="#FFFFFF" opacity="0.807843" />
<rect x="11" y="9" width="1" height="1" fill="#FFFFFF" opacity="0.772549" />
<rect x="12" y="9" width="1" height="1" fill="#FFFFFF" opacity="0.811765" />
<rect x="13" y="9" width="1" height="1" fill="#FFFFFF" opacity="0.831373" />
<rect x="14" y="9" width="1" height="1" fill="#FFFFFF" opacity="0.831373" />
<rect x="15" y="9" width="1" height="1" fill="#FFFFFF" opacity="0.831373" />
<rect x="16" y="9" width="1" height="1" fill="#FFFFFF" opacity="0.796078" />
<rect x="17" y="9" width="1" height="1" fill="#FFFFFF" opacity="0.772549" />
<rect x="18" y="9" width="1" height="1" fill="#FFFFFF" opacity="0.819608" />
<rect x="19" y="9" width="1" height="1" fill="#FFFFFF" opacity="0.831373" />
<rect x="20" y="9" width="1" height="1" fill="#FFFFFF" opacity="0.815686" />
<rect x="21" y="9" width="1" height="1" fill="#FFFFFF" opacity="0.878431" />
<rect x="22" y="9" width="1" height="1" fill="#FEFEFE" />
<rect x="23" y="9" width="1" height="1" fill="#FFFFFF" opacity="0.505882" />
<rect x="0" y="10" width="1" height="1" fill="#FFFFFF" opacity="0.513725" />
<rect x="1" y="10" width="1" height="1" fill="#FFFFFF" />
<rect x="2" y="10" width="1" height="1" fill="#FFFFFF" opacity="0.278431" />
<rect x="4" y="10" width="1" height="1" fill="#FFFFFF" opacity="0.019608" />
<rect x="5" y="10" width="1" height="1" fill="#FFFFFF" opacity="0.019608" />
<rect x="6" y="10" width="1" height="1" fill="#FFFFFF" opacity="0.019608" />
<rect x="7" y="10" width="1" height="1" fill="#FFFFFF" opacity="0.019608" />
<rect x="8" y="10" width="1" height="1" fill="#FFFFFF" opacity="0.015686" />
<rect x="9" y="10" width="1" height="1" fill="#FFFFFF" opacity="0.015686" />
<rect x="12" y="10" width="1" height="1" fill="#FFFFFF" opacity="0.015686" />
<rect x="13" y="10" width="1" height="1" fill="#FFFFFF" opacity="0.019608" />
<rect x="14" y="10" width="1" height="1" fill="#FFFFFF" opacity="0.019608" />
<rect x="15" y="10" width="1" height="1" fill="#FFFFFF" opacity="0.019608" />
<rect x="16" y="10" width="1" height="1" fill="#FFFFFF" opacity="0.019608" />
<rect x="17" y="10" width="1" height="1" fill="#FFFFFF" opacity="0.019608" />
<rect x="18" y="10" width="1" height="1" fill="#FFFFFF" opacity="0.019608" />
<rect x="19" y="10" width="1" height="1" fill="#FFFFFF" opacity="0.019608" />
<rect x="21" y="10" width="1" height="1" fill="#FFFFFF" opacity="0.278431" />
<rect x="22" y="10" width="1" height="1" fill="#FFFFFF" />
<rect x="23" y="10" width="1" height="1" fill="#FFFFFF" opacity="0.513725" />
<rect x="0" y="11" width="1" height="1" fill="#FFFFFF" opacity="0.513725" />
<rect x="1" y="11" width="1" height="1" fill="#FFFFFF" />
<rect x="2" y="11" width="1" height="1" fill="#FFFFFF" opacity="0.262745" />
<rect x="9" y="11" width="1" height="1" fill="#FFFFFF" opacity="0.027451" />
<rect x="10" y="11" width="1" height="1" fill="#FFFFFF" opacity="0.376471" />
<rect x="11" y="11" width="1" height="1" fill="#FFFFFF" opacity="0.207843" />
<rect x="21" y="11" width="1" height="1" fill="#FFFFFF" opacity="0.262745" />
<rect x="22" y="11" width="1" height="1" fill="#FFFFFF" />
<rect x="23" y="11" width="1" height="1" fill="#FFFFFF" opacity="0.513725" />
<rect x="0" y="12" width="1" height="1" fill="#FFFFFF" opacity="0.513725" />
<rect x="1" y="12" width="1" height="1" fill="#FFFFFF" />
<rect x="2" y="12" width="1" height="1" fill="#FFFFFF" opacity="0.278431" />
<rect x="9" y="12" width="1" height="1" fill="#FFFFFF" opacity="0.176471" />
<rect x="10" y="12" width="1" height="1" fill="#FFFFFF" opacity="0.956863" />
<rect x="11" y="12" width="1" height="1" fill="#FFFFFF" opacity="0.945098" />
<rect x="12" y="12" width="1" height="1" fill="#FFFFFF" opacity="0.466667" />
<rect x="13" y="12" width="1" height="1" fill="#FFFFFF" opacity="0.062745" />
<rect x="21" y="12" width="1" height="1" fill="#FFFFFF" opacity="0.278431" />
<rect x="22" y="12" width="1" height="1" fill="#FFFFFF" />
<rect x="23" y="12" width="1" height="1" fill="#FFFFFF" opacity="0.513725" />
<rect x="0" y="13" width="1" height="1" fill="#FFFFFF" opacity="0.513725" />
<rect x="1" y="13" width="1" height="1" fill="#FFFFFF" />
<rect x="2" y="13" width="1" height="1" fill="#FFFFFF" opacity="0.278431" />
<rect x="9" y="13" width="1" height="1" fill="#FFFFFF" opacity="0.180392" />
<rect x="10" y="13" width="1" height="1" fill="#FFFFFF" opacity="0.945098" />
<rect x="11" y="13" width="1" height="1" fill="#FFFFFF" />
<rect x="12" y="13" width="1" height="1" fill="#FFFFFF" />
<rect x="13" y="13" width="1" height="1" fill="#FFFFFF" opacity="0.752941" />
<rect x="14" y="13" width="1" height="1" fill="#FFFFFF" opacity="0.254902" />
<rect x="21" y="13" width="1" height="1" fill="#FFFFFF" opacity="0.278431" />
<rect x="22" y="13" width="1" height="1" fill="#FFFFFF" />
<rect x="23" y="13" width="1" height="1" fill="#FFFFFF" opacity="0.513725" />
<rect x="0" y="14" width="1" height="1" fill="#FFFFFF" opacity="0.513725" />
<rect x="1" y="14" width="1" height="1" fill="#FFFFFF" />
<rect x="2" y="14" width="1" height="1" fill="#FFFFFF" opacity="0.278431" />
<rect x="9" y="14" width="1" height="1" fill="#FFFFFF" opacity="0.176471" />
<rect x="10" y="14" width="1" height="1" fill="#FFFFFF" opacity="0.941176" />
<rect x="11" y="14" width="1" height="1" fill="#FFFFFF" />
<rect x="12" y="14" width="1" height="1" fill="#FFFFFF" />
<rect x="13" y="14" width="1" height="1" fill="#FFFFFF" />
<rect x="14" y="14" width="1" height="1" fill="#FFFFFF" opacity="0.964706" />
<rect x="15" y="14" width="1" height="1" fill="#FFFFFF" opacity="0.415686" />
<rect x="21" y="14" width="1" height="1" fill="#FFFFFF" opacity="0.278431" />
<rect x="22" y="14" width="1" height="1" fill="#FFFFFF" />
<rect x="23" y="14" width="1" height="1" fill="#FFFFFF" opacity="0.513725" />
<rect x="0" y="15" width="1" height="1" fill="#FFFFFF" opacity="0.513725" />
<rect x="1" y="15" width="1" height="1" fill="#FFFFFF" />
<rect x="2" y="15" width="1" height="1" fill="#FFFFFF" opacity="0.278431" />
<rect x="9" y="15" width="1" height="1" fill="#FFFFFF" opacity="0.176471" />
<rect x="10" y="15" width="1" height="1" fill="#FFFFFF" opacity="0.941176" />
<rect x="11" y="15" width="1" height="1" fill="#FFFFFF" />
<rect x="12" y="15" width="1" height="1" fill="#FFFFFF" />
<rect x="13" y="15" width="1" height="1" fill="#FFFFFF" />
<rect x="14" y="15" width="1" height="1" fill="#FFFFFF" opacity="0.964706" />
<rect x="15" y="15" width="1" height="1" fill="#FFFFFF" opacity="0.415686" />
<rect x="21" y="15" width="1" height="1" fill="#FFFFFF" opacity="0.278431" />
<rect x="22" y="15" width="1" height="1" fill="#FFFFFF" />
<rect x="23" y="15" width="1" height="1" fill="#FFFFFF" opacity="0.513725" />
<rect x="0" y="16" width="1" height="1" fill="#FFFFFF" opacity="0.513725" />
<rect x="1" y="16" width="1" height="1" fill="#FFFFFF" />
<rect x="2" y="16" width="1" height="1" fill="#FFFFFF" opacity="0.278431" />
<rect x="9" y="16" width="1" height="1" fill="#FFFFFF" opacity="0.180392" />
<rect x="10" y="16" width="1" height="1" fill="#FFFFFF" opacity="0.945098" />
<rect x="11" y="16" width="1" height="1" fill="#FFFFFF" />
<rect x="12" y="16" width="1" height="1" fill="#FFFFFF" />
<rect x="13" y="16" width="1" height="1" fill="#FFFFFF" opacity="0.756863" />
<rect x="14" y="16" width="1" height="1" fill="#FFFFFF" opacity="0.254902" />
<rect x="21" y="16" width="1" height="1" fill="#FFFFFF" opacity="0.278431" />
<rect x="22" y="16" width="1" height="1" fill="#FFFFFF" />
<rect x="23" y="16" width="1" height="1" fill="#FFFFFF" opacity="0.513725" />
<rect x="0" y="17" width="1" height="1" fill="#FFFFFF" opacity="0.513725" />
<rect x="1" y="17" width="1" height="1" fill="#FFFFFF" />
<rect x="2" y="17" width="1" height="1" fill="#FFFFFF" opacity="0.278431" />
<rect x="9" y="17" width="1" height="1" fill="#FFFFFF" opacity="0.176471" />
<rect x="10" y="17" width="1" height="1" fill="#FFFFFF" opacity="0.956863" />
<rect x="11" y="17" width="1" height="1" fill="#FFFFFF" opacity="0.949020" />
<rect x="12" y="17" width="1" height="1" fill="#FFFFFF" opacity="0.474510" />
<rect x="13" y="17" width="1" height="1" fill="#FFFFFF" opacity="0.062745" />
<rect x="21" y="17" width="1" height="1" fill="#FFFFFF" opacity="0.278431" />
<rect x="22" y="17" width="1" height="1" fill="#FFFFFF" />
<rect x="23" y="17" width="1" height="1" fill="#FFFFFF" opacity="0.513725" />
<rect x="0" y="18" width="1" height="1" fill="#FFFFFF" opacity="0.525490" />
<rect x="1" y="18" width="1" height="1" fill="#FFFFFF" />
<rect x="2" y="18" width="1" height="1" fill="#FFFFFF" opacity="0.254902" />
<rect x="9" y="18" width="1" height="1" fill="#FFFFFF" opacity="0.035294" />
<rect x="10" y="18" width="1" height="1" fill="#FFFFFF" opacity="0.384314" />
<rect x="11" y="18" width="1" height="1" fill="#FFFFFF" opacity="0.223529" />
<rect x="21" y="18" width="1" height="1" fill="#FFFFFF" opacity="0.254902" />
<rect x="22" y="18" width="1" height="1" fill="#FFFFFF" />
<rect x="23" y="18" width="1" height="1" fill="#FFFFFF" opacity="0.525490" />
<rect x="0" y="19" width="1" height="1" fill="#FFFFFF" opacity="0.498039" />
<rect x="1" y="19" width="1" height="1" fill="#FFFFFF" />
<rect x="2" y="19" width="1" height="1" fill="#FFFFFF" opacity="0.325490" />
<rect x="21" y="19" width="1" height="1" fill="#FFFFFF" opacity="0.325490" />
<rect x="22" y="19" width="1" height="1" fill="#FFFFFF" />
<rect x="23" y="19" width="1" height="1" fill="#FFFFFF" opacity="0.498039" />
<rect x="0" y="20" width="1" height="1" fill="#FFFFFF" opacity="0.176471" />
<rect x="1" y="20" width="1" height="1" fill="#FFFFFF" opacity="0.843137" />
<rect x="2" y="20" width="1" height="1" fill="#FFFFFF" opacity="0.917647" />
<rect x="3" y="20" width="1" height="1" fill="#FFFFFF" opacity="0.713725" />
<rect x="4" y="20" width="1" height="1" fill="#FFFFFF" opacity="0.721569" />
<rect x="5" y="20" width="1" height="1" fill="#FFFFFF" opacity="0.721569" />
<rect x="6" y="20" width="1" height="1" fill="#FFFFFF" opacity="0.721569" />
<rect x="7" y="20" width="1" height="1" fill="#FFFFFF" opacity="0.721569" />
<rect x="8" y="20" width="1" height="1" fill="#FFFFFF" opacity="0.721569" />
<rect x="9" y="20" width="1" height="1" fill="#FFFFFF" opacity="0.721569" />
<rect x="10" y="20" width="1" height="1" fill="#FFFFFF" opacity="0.721569" />
<rect x="11" y="20" width="1" height="1" fill="#FFFFFF" opacity="0.721569" />
<rect x="12" y="20" width="1" height="1" fill="#FFFFFF" opacity="0.721569" />
<rect x="13" y="20" width="1" height="1" fill="#FFFFFF" opacity="0.721569" />
<rect x="14" y="20" width="1" height="1" fill="#FFFFFF" opacity="0.721569" />
<rect x="15" y="20" width="1" height="1" fill="#FFFFFF" opacity="0.721569" />
<rect x="16" y="20" width="1" height="1" fill="#FFFFFF" opacity="0.721569" />
<rect x="17" y="20" width="1" height="1" fill="#FFFFFF" opacity="0.721569" />
<rect x="18" y="20" width="1" height="1" fill="#FFFFFF" opacity="0.721569" />
<rect x="19" y="20" width="1" height="1" fill="#FFFFFF" opacity="0.721569" />
<rect x="20" y="20" width="1" height="1" fill="#FFFFFF" opacity="0.709804" />
<rect x="21" y="20" width="1" height="1" fill="#FFFFFF" opacity="0.917647" />
<rect x="22" y="20" width="1" height="1" fill="#FFFFFF" opacity="0.843137" />
<rect x="23" y="20" width="1" height="1" fill="#FFFFFF" opacity="0.176471" />
<rect x="1" y="21" width="1" height="1" fill="#FFFFFF" opacity="0.223529" />
<rect x="2" y="21" width="1" height="1" fill="#FFFFFF" opacity="0.803922" />
<rect x="3" y="21" width="1" height="1" fill="#FFFFFF" opacity="0.949020" />
<rect x="4" y="21" width="1" height="1" fill="#FFFFFF" opacity="0.941176" />
<rect x="5" y="21" width="1" height="1" fill="#FFFFFF" opacity="0.941176" />
<rect x="6" y="21" width="1" height="1" fill="#FFFFFF" opacity="0.941176" />
<rect x="7" y="21" width="1" height="1" fill="#FFFFFF" opacity="0.941176" />
<rect x="8" y="21" width="1" height="1" fill="#FFFFFF" opacity="0.941176" />
<rect x="9" y="21" width="1" height="1" fill="#FFFFFF" opacity="0.941176" />
<rect x="10" y="21" width="1" height="1" fill="#FFFFFF" opacity="0.941176" />
<rect x="11" y="21" width="1" height="1" fill="#FFFFFF" opacity="0.941176" />
<rect x="12" y="21" width="1" height="1" fill="#FFFFFF" opacity="0.941176" />
<rect x="13" y="21" width="1" height="1" fill="#FFFFFF" opacity="0.941176" />
<rect x="14" y="21" width="1" height="1" fill="#FFFFFF" opacity="0.941176" />
<rect x="15" y="21" width="1" height="1" fill="#FFFFFF" opacity="0.941176" />
<rect x="16" y="21" width="1" height="1" fill="#FFFFFF" opacity="0.941176" />
<rect x="17" y="21" width="1" height="1" fill="#FFFFFF" opacity="0.941176" />
<rect x="18" y="21" width="1" height="1" fill="#FFFFFF" opacity="0.941176" />
<rect x="19" y="21" width="1" height="1" fill="#FFFFFF" opacity="0.941176" />
<rect x="20" y="21" width="1" height="1" fill="#FFFFFF" opacity="0.949020" />
<rect x="21" y="21" width="1" height="1" fill="#FFFFFF" opacity="0.803922" />
<rect x="22" y="21" width="1" height="1" fill="#FFFFFF" opacity="0.223529" />
<rect x="2" y="22" width="1" height="1" fill="#FFFFFF" opacity="0.313725" />
<rect x="3" y="22" width="1" height="1" fill="#FFFFFF" opacity="0.474510" />
<rect x="4" y="22" width="1" height="1" fill="#FFFFFF" opacity="0.458824" />
<rect x="5" y="22" width="1" height="1" fill="#FFFFFF" opacity="0.458824" />
<rect x="6" y="22" width="1" height="1" fill="#FFFFFF" opacity="0.458824" />
<rect x="7" y="22" width="1" height="1" fill="#FFFFFF" opacity="0.458824" />
<rect x="8" y="22" width="1" height="1" fill="#FFFFFF" opacity="0.458824" />
<rect x="9" y="22" width="1" height="1" fill="#FFFFFF" opacity="0.458824" />
<rect x="10" y="22" width="1" height="1" fill="#FFFFFF" opacity="0.458824" />
<rect x="11" y="22" width="1" height="1" fill="#FFFFFF" opacity="0.458824" />
<rect x="12" y="22" width="1" height="1" fill="#FFFFFF" opacity="0.458824" />
<rect x="13" y="22" width="1" height="1" fill="#FFFFFF" opacity="0.458824" />
<rect x="14" y="22" width="1" height="1" fill="#FFFFFF" opacity="0.458824" />
<rect x="15" y="22" width="1" height="1" fill="#FFFFFF" opacity="0.458824" />
<rect x="16" y="22" width="1" height="1" fill="#FFFFFF" opacity="0.458824" />
<rect x="17" y="22" width="1" height="1" fill="#FFFFFF" opacity="0.458824" />
<rect x="18" y="22" width="1" height="1" fill="#FFFFFF" opacity="0.458824" />
<rect x="19" y="22" width="1" height="1" fill="#FFFFFF" opacity="0.458824" />
<rect x="20" y="22" width="1" height="1" fill="#FFFFFF" opacity="0.474510" />
<rect x="21" y="22" width="1" height="1" fill="#FFFFFF" opacity="0.313725" />
</svg>